# xmcd
#
# Track frame offsets:
#	150
#	10548
#	23405
#	35335
#	46485
#	59675
#	76815
#	89728
#	101475
#	113900
#	123870
#	135695
#	148885
#	161122
#
# Disc length: 2336 seconds
#
# Revision: 0
# Processed by: cddbd v1.4PL0 Copyright (c) Steve Scherf et al.
# Submitted via: audiograbber 1.82.00
#
DISCID=b6091e0e
DTITLE=Various Artist - Playback Radio Sampler #5
DYEAR=1900
DGENRE=Country
TTITLE0=Tommy Cash - Old Memories Are Hard To Lose
TTITLE1=Jeannie C Riley - Free
TTITLE2=Bill E Penn - Oh Boy
TTITLE3=Melba Montgomery - Heartaches By The Number
TTITLE4=Johnny Paycheck - Memory Crossing
TTITLE5=Petrella - Blues Stay Away From Me
TTITLE6=Mark Poncy - Blue For You
TTITLE7=Charlie Louvin and Charlie Daniels - Are There Any Lonely Women Here Toni
TTITLE7=ght
TTITLE8=Sandi Thompson - The Only Game In Town
TTITLE9=Kevin Greaves - Songs About A Fool
TTITLE10=Sammi Smith - Mem'ryville
TTITLE11=David Bolles - Water Under The Bridge
TTITLE12=Tina Felton - No More Lonely Nights
TTITLE13=Jack Blanchard and Misty Morgan - Sea Of Heartbreak
EXTD=
EXTT0=
EXTT1=
EXTT2=
EXTT3=
EXTT4=
EXTT5=
EXTT6=
EXTT7=
EXTT8=
EXTT9=
EXTT10=
EXTT11=
EXTT12=
EXTT13=
PLAYORDER=
